<mxfile host="app.diagrams.net" modified="2023-07-22T04:34:23.159Z" agent="Mozilla/5.0 (Windows NT 10.0; Win64; x64) AppleWebKit/537.36 (KHTML, like Gecko) Chrome/115.0.0.0 Safari/537.36" etag="y7poim_sh0ZDRDp-ZF8S" version="21.6.5" type="google">
  <diagram name="Page-1" id="gmC-6dkbiLX87cURXJiX">
    <mxGraphModel grid="1" page="1" gridSize="10" guides="1" tooltips="1" connect="1" arrows="1" fold="1" pageScale="1" pageWidth="850" pageHeight="1100" math="0" shadow="0">
      <root>
        <mxCell id="0" />
        <mxCell id="1" parent="0" />
        <mxCell id="SkODUX6JZ9Hb2z9r3oz_-1" value="" style="html=1;points=[];perimeter=orthogonalPerimeter;outlineConnect=0;targetShapes=umlLifeline;portConstraint=eastwest;newEdgeStyle={&quot;edgeStyle&quot;:&quot;elbowEdgeStyle&quot;,&quot;elbow&quot;:&quot;vertical&quot;,&quot;curved&quot;:0,&quot;rounded&quot;:0};" vertex="1" parent="1">
          <mxGeometry x="80" y="160" width="40" height="240" as="geometry" />
        </mxCell>
        <mxCell id="SkODUX6JZ9Hb2z9r3oz_-2" value="" style="shape=umlLifeline;perimeter=lifelinePerimeter;whiteSpace=wrap;html=1;container=1;dropTarget=0;collapsible=0;recursiveResize=0;outlineConnect=0;portConstraint=eastwest;newEdgeStyle={&quot;edgeStyle&quot;:&quot;elbowEdgeStyle&quot;,&quot;elbow&quot;:&quot;vertical&quot;,&quot;curved&quot;:0,&quot;rounded&quot;:0};participant=umlActor;size=63;" vertex="1" parent="1">
          <mxGeometry x="80" y="77" width="40" height="363" as="geometry" />
        </mxCell>
        <mxCell id="SkODUX6JZ9Hb2z9r3oz_-3" value="" style="html=1;points=[];perimeter=orthogonalPerimeter;outlineConnect=0;targetShapes=umlLifeline;portConstraint=eastwest;newEdgeStyle={&quot;edgeStyle&quot;:&quot;elbowEdgeStyle&quot;,&quot;elbow&quot;:&quot;vertical&quot;,&quot;curved&quot;:0,&quot;rounded&quot;:0};" vertex="1" parent="1">
          <mxGeometry x="280" y="160" width="40" height="240" as="geometry" />
        </mxCell>
        <mxCell id="SkODUX6JZ9Hb2z9r3oz_-4" value="Login" style="shape=umlLifeline;perimeter=lifelinePerimeter;whiteSpace=wrap;html=1;container=1;dropTarget=0;collapsible=0;recursiveResize=0;outlineConnect=0;portConstraint=eastwest;newEdgeStyle={&quot;edgeStyle&quot;:&quot;elbowEdgeStyle&quot;,&quot;elbow&quot;:&quot;vertical&quot;,&quot;curved&quot;:0,&quot;rounded&quot;:0};" vertex="1" parent="1">
          <mxGeometry x="250" y="80" width="100" height="360" as="geometry" />
        </mxCell>
        <mxCell id="SkODUX6JZ9Hb2z9r3oz_-5" value="Database" style="shape=umlLifeline;perimeter=lifelinePerimeter;whiteSpace=wrap;html=1;container=1;dropTarget=0;collapsible=0;recursiveResize=0;outlineConnect=0;portConstraint=eastwest;newEdgeStyle={&quot;edgeStyle&quot;:&quot;elbowEdgeStyle&quot;,&quot;elbow&quot;:&quot;vertical&quot;,&quot;curved&quot;:0,&quot;rounded&quot;:0};" vertex="1" parent="1">
          <mxGeometry x="470" y="80" width="100" height="360" as="geometry" />
        </mxCell>
        <mxCell id="SkODUX6JZ9Hb2z9r3oz_-6" value="" style="html=1;points=[];perimeter=orthogonalPerimeter;outlineConnect=0;targetShapes=umlLifeline;portConstraint=eastwest;newEdgeStyle={&quot;edgeStyle&quot;:&quot;elbowEdgeStyle&quot;,&quot;elbow&quot;:&quot;vertical&quot;,&quot;curved&quot;:0,&quot;rounded&quot;:0};fillColor=none;" vertex="1" parent="SkODUX6JZ9Hb2z9r3oz_-5">
          <mxGeometry x="30" y="80" width="40" height="240" as="geometry" />
        </mxCell>
        <mxCell id="SkODUX6JZ9Hb2z9r3oz_-7" value="Search Database" style="html=1;align=left;spacingLeft=2;endArrow=block;rounded=0;edgeStyle=orthogonalEdgeStyle;curved=0;rounded=0;" edge="1" parent="1">
          <mxGeometry relative="1" as="geometry">
            <mxPoint x="535" y="200" as="sourcePoint" />
            <Array as="points">
              <mxPoint x="580" y="200" />
              <mxPoint x="580" y="320" />
            </Array>
            <mxPoint x="540" y="320" as="targetPoint" />
          </mxGeometry>
        </mxCell>
        <mxCell id="SkODUX6JZ9Hb2z9r3oz_-8" value="" style="endArrow=classic;html=1;rounded=0;" edge="1" parent="1" source="SkODUX6JZ9Hb2z9r3oz_-1">
          <mxGeometry width="50" height="50" relative="1" as="geometry">
            <mxPoint x="400" y="240" as="sourcePoint" />
            <mxPoint x="280" y="190" as="targetPoint" />
          </mxGeometry>
        </mxCell>
        <mxCell id="SkODUX6JZ9Hb2z9r3oz_-9" value="Enter Login Details" style="edgeLabel;html=1;align=center;verticalAlign=middle;resizable=0;points=[];" connectable="0" vertex="1" parent="SkODUX6JZ9Hb2z9r3oz_-8">
          <mxGeometry x="-0.115" relative="1" as="geometry">
            <mxPoint as="offset" />
          </mxGeometry>
        </mxCell>
        <mxCell id="SkODUX6JZ9Hb2z9r3oz_-10" value="" style="endArrow=classic;html=1;rounded=0;" edge="1" parent="1" target="SkODUX6JZ9Hb2z9r3oz_-6">
          <mxGeometry width="50" height="50" relative="1" as="geometry">
            <mxPoint x="320" y="200" as="sourcePoint" />
            <mxPoint x="480" y="200" as="targetPoint" />
          </mxGeometry>
        </mxCell>
        <mxCell id="SkODUX6JZ9Hb2z9r3oz_-11" value="" style="endArrow=classic;html=1;rounded=0;entryX=0.97;entryY=0.856;entryDx=0;entryDy=0;entryPerimeter=0;dashed=1;" edge="1" parent="1" source="SkODUX6JZ9Hb2z9r3oz_-6">
          <mxGeometry width="50" height="50" relative="1" as="geometry">
            <mxPoint x="680" y="319" as="sourcePoint" />
            <mxPoint x="119" y="319" as="targetPoint" />
          </mxGeometry>
        </mxCell>
        <mxCell id="SkODUX6JZ9Hb2z9r3oz_-12" value="Return Result" style="edgeLabel;html=1;align=center;verticalAlign=middle;resizable=0;points=[];" connectable="0" vertex="1" parent="SkODUX6JZ9Hb2z9r3oz_-11">
          <mxGeometry x="-0.1411" y="1" relative="1" as="geometry">
            <mxPoint x="-126" as="offset" />
          </mxGeometry>
        </mxCell>
      </root>
    </mxGraphModel>
  </diagram>
</mxfile>
